<?xml version="1.0" encoding="UTF-8" standalone="no"?>
<!-- Created with Inkscape (http://www.inkscape.org/) -->

<svg
   version="1.1"
   id="svg1"
   width="249.01817"
   height="151.56364"
   viewBox="0 0 249.01817 151.56364"
   sodipodi:docname="carla letra.svg"
   inkscape:version="1.4 (86a8ad7, 2024-10-11)"
   xmlns:inkscape="http://www.inkscape.org/namespaces/inkscape"
   xmlns:sodipodi="http://sodipodi.sourceforge.net/DTD/sodipodi-0.dtd"
   xmlns="http://www.w3.org/2000/svg"
   xmlns:svg="http://www.w3.org/2000/svg">
  <defs
     id="defs1" />
  <sodipodi:namedview
     id="namedview1"
     pagecolor="#ffffff"
     bordercolor="#000000"
     borderopacity="0.25"
     inkscape:showpageshadow="2"
     inkscape:pageopacity="0.0"
     inkscape:pagecheckerboard="0"
     inkscape:deskcolor="#d1d1d1"
     inkscape:zoom="3.4856894"
     inkscape:cx="124.50909"
     inkscape:cy="75.738246"
     inkscape:window-width="1366"
     inkscape:window-height="690"
     inkscape:window-x="-8"
     inkscape:window-y="-8"
     inkscape:window-maximized="1"
     inkscape:current-layer="g1" />
  <g
     inkscape:groupmode="layer"
     inkscape:label="Image"
     id="g1">
    <path
       style="fill:#000000"
       d="m 56.670296,84.886636 c -8.271422,-1.81157 -14.806608,-8.94362 -16.768659,-18.30016 -1.05754,-5.04315 -0.671895,-12.268068 0.898464,-16.832397 1.909148,-5.549034 6.175727,-10.810028 10.727477,-13.227736 6.451622,-3.426844 15.867138,-3.303687 21.970056,0.287373 2.323775,1.367348 5.718116,4.570374 5.718116,5.395826 0,0.671616 -2.636595,5.163602 -3.60221,6.137113 l -0.668958,0.674427 -2.446234,-2.248711 c -3.213028,-2.953588 -5.711452,-4.180752 -8.965879,-4.403815 -6.991655,-0.479219 -12.134686,3.151546 -14.485724,10.226316 -0.708455,2.131889 -0.782442,2.768733 -0.796888,6.859175 -0.01392,3.940629 0.06993,4.784149 0.665058,6.690909 1.982502,6.35179 5.804384,9.99331 11.352515,10.81677 4.300003,0.63821 8.825046,-0.98709 12.778106,-4.58965 1.999577,-1.82227 2.150919,-1.9053 2.649875,-1.45375 0.93494,0.84611 3.811248,5.02044 3.811248,5.53119 0,0.68402 -2.698033,3.47641 -4.8,4.96788 -2.133649,1.51395 -3.505476,2.2173 -5.965603,3.05864 -2.513938,0.85973 -9.010977,1.08074 -12.07076,0.4106 z m 37.192108,0.0453 c -5.382517,-1.30561 -10.343689,-6.47317 -11.892232,-12.38697 -0.645795,-2.46626 -0.652899,-7.31741 -0.01467,-10.01757 1.34062,-5.671757 5.351274,-10.333904 10.38366,-12.070387 2.611739,-0.901211 6.795006,-1.119477 9.269408,-0.48364 2.42864,0.624076 4.0835,1.604965 6.32066,3.746462 l 1.80439,1.727234 0.18614,-0.832868 c 0.10237,-0.458077 0.34495,-1.421959 0.53906,-2.141959 l 0.35293,-1.309091 1.67842,0.05845 c 1.78812,0.06227 4.69354,0.786955 4.97392,1.240624 0.0929,0.150286 -0.0885,2.079475 -0.40313,4.287087 -0.92651,6.501508 -0.98893,8.956128 -0.46229,18.181408 0.27128,4.75216 0.43711,8.81034 0.3685,9.01818 -0.0841,0.25491 -1.19348,0.47592 -3.40865,0.6791 -3.76502,0.34533 -3.85673,0.29777 -4.22698,-2.19212 -0.25991,-1.74793 -0.43671,-2.32727 -0.71019,-2.32727 -0.12536,0 -1.08872,0.65164 -2.1408,1.44808 -4.52435,3.42502 -8.275879,4.42852 -12.618148,3.37525 z m 8.940436,-7.77025 c 1.77766,-0.76473 3.85694,-2.96438 4.85409,-5.1351 1.09518,-2.38411 1.24446,-5.88761 0.36206,-8.49723 -1.90722,-5.640427 -6.95954,-8.291887 -12.120587,-6.360892 -4.631757,1.732963 -7.47948,7.750712 -6.106335,12.903772 1.689481,6.3402 7.452641,9.48049 13.010772,7.08945 z m 70.60132,7.73092 c -2.66318,-0.64557 -4.56955,-1.7904 -6.94314,-4.16955 -5.82852,-5.84216 -7.11174,-14.69677 -3.24825,-22.413843 2.9347,-5.861866 8.79443,-9.100846 15.6867,-8.670852 3.23666,0.201927 6.06945,1.512754 8.67394,4.013717 2.00855,1.928704 1.94622,1.940678 2.35603,-0.452565 0.36492,-2.131126 0.53868,-2.275728 2.47184,-2.057016 1.92311,0.217574 4.53005,0.928394 4.75809,1.297356 0.0827,0.133872 -0.10314,1.971061 -0.41305,4.082643 -0.90505,6.16647 -0.98728,9.60633 -0.45147,18.88497 0.27108,4.69437 0.40793,8.62164 0.30412,8.72727 -0.10382,0.10563 -1.63472,0.32759 -3.40201,0.49326 -3.08434,0.28912 -3.22849,0.27744 -3.5931,-0.29091 -0.28578,-0.44548 -1.0063,-3.40722 -1.0063,-4.13645 0,-0.34302 -0.81039,0.1043 -2.48434,1.37131 -4.5444,3.43964 -8.23754,4.4046 -12.70906,3.32066 z m 9.10776,-7.73092 c 1.7682,-0.76065 3.84656,-2.95233 4.86963,-5.1351 0.69079,-1.47384 0.77965,-2.01228 0.77965,-4.7241 0,-2.87194 -0.0589,-3.18037 -0.95576,-5.00209 -1.9907,-4.043677 -4.96395,-5.93511 -8.93515,-5.684089 -4.14719,0.262146 -7.40319,3.058856 -8.69953,7.472369 -1.70708,5.81191 1.82205,12.5747 7.14223,13.68647 1.73825,0.36325 4.11233,0.1121 5.79893,-0.61346 z m -58.92819,6.9554 c -0.0711,-0.20466 -0.18138,-6.13212 -0.24496,-13.17212 -0.0982,-10.875545 -0.19388,-13.171767 -0.63629,-15.272726 -0.28638,-1.36 -0.5335,-2.861323 -0.54916,-3.336273 l -0.0285,-0.863546 2.49095,-0.359107 c 1.37003,-0.197509 3.04742,-0.484135 3.72753,-0.636947 1.12746,-0.253321 1.25907,-0.222442 1.49147,0.349926 0.1402,0.345271 0.33628,1.249584 0.43575,2.009584 0.0995,0.76 0.3286,1.381818 0.50918,1.381818 0.18058,0 1.19961,-0.526436 2.26451,-1.169858 2.83966,-1.715752 4.79829,-2.321051 7.51045,-2.321051 1.48512,0 2.40517,0.128724 2.59906,0.363636 0.31018,0.375785 -0.0563,7.267226 -0.41756,7.851729 -0.1132,0.183154 -1.21317,0.218209 -2.97725,0.09488 -4.45714,-0.311599 -6.6456,0.402377 -7.82172,2.551805 -0.4518,0.82569 -0.50328,2.03562 -0.50328,11.82886 v 10.90909 l -3.86042,0.0812 c -2.93244,0.0617 -3.89151,-0.008 -3.98978,-0.29091 z m 24.17639,-18.47299 c -0.096,-10.36452 -0.2849,-21.331856 -0.41987,-24.371856 -0.13497,-3.040001 -0.19891,-5.662026 -0.14209,-5.826724 0.0649,-0.188091 1.73931,-0.296274 4.50258,-0.290909 l 4.39927,0.0085 -0.2489,4.218182 c -0.13689,2.320001 -0.25536,13.381819 -0.26325,24.581817 l -0.0144,20.36364 -3.81946,0.081 -3.81946,0.081 z"
       id="path1" />
  </g>
</svg>
